<?xml version="1.0" encoding="UTF-8"?>
<!DOCTYPE svg PUBLIC "-//W3C//DTD SVG 1.1//EN" "http://www.w3.org/Graphics/SVG/1.1/DTD/svg11.dtd">
<svg xmlns="http://www.w3.org/2000/svg" version="1.1" width="96px" height="96px" style="shape-rendering:geometricPrecision; text-rendering:geometricPrecision; image-rendering:optimizeQuality; fill-rule:evenodd; clip-rule:evenodd" xmlns:xlink="http://www.w3.org/1999/xlink">
<g><path style="opacity:0.989" fill="#4caf50" d="M 38.5,7.5 C 61.3294,4.54685 77.1628,13.5469 86,34.5C 91.7177,58.8973 83.2177,76.064 60.5,86C 36.1027,91.7177 18.936,83.2177 9,60.5C 3.42409,33.977 13.2574,16.3104 38.5,7.5 Z"/></g>
<g><path style="opacity:1" fill="#c9fd8e" d="M 67.5,29.5 C 71.3233,29.8183 73.1567,31.8183 73,35.5C 62.8333,45.6667 52.6667,55.8333 42.5,66C 41.8333,66.6667 41.1667,66.6667 40.5,66C 35.6667,61.1667 30.8333,56.3333 26,51.5C 26.4007,48.899 27.9007,46.899 30.5,45.5C 33.9846,48.484 37.318,51.6507 40.5,55C 41.1667,55.6667 41.8333,55.6667 42.5,55C 51.0357,46.6317 59.369,38.1317 67.5,29.5 Z"/></g>
</svg>
