<?xml version="1.0" standalone="no"?>
<!DOCTYPE svg PUBLIC "-//W3C//DTD SVG 20010904//EN"
 "http://www.w3.org/TR/2001/REC-SVG-20010904/DTD/svg10.dtd">
<svg version="1.0" xmlns="http://www.w3.org/2000/svg"
 width="64.000000pt" height="64.000000pt" viewBox="0 0 64.000000 64.000000"
 preserveAspectRatio="xMidYMid meet">
<metadata>
Created by potrace 1.16, written by Peter Selinger 2001-2019
</metadata>
<g transform="translate(0.000000,64.000000) scale(0.100000,-0.100000)"
fill="#000000" stroke="none">
<path d="M173 527 l-113 -42 0 -163 0 -163 33 -14 c17 -7 76 -28 129 -47 l97
-32 88 28 c48 16 107 37 131 47 l42 18 0 164 0 163 -119 42 c-66 23 -132 41
-148 41 -15 -1 -79 -20 -140 -42z m176 -6 c9 -6 -17 -19 -83 -41 l-96 -32 0
-44 c0 -37 4 -46 23 -53 30 -12 37 -6 37 32 0 32 1 32 104 69 93 33 146 39
146 19 0 -4 -39 -21 -87 -38 l-88 -30 -3 -142 c-1 -77 -6 -141 -10 -141 -4 0
-49 14 -99 32 l-93 32 0 136 0 135 103 37 c110 39 125 42 146 29z m191 -209
l0 -128 -92 -32 c-51 -18 -97 -32 -101 -32 -4 0 -6 57 -5 126 l3 127 90 32
c50 18 93 33 98 34 4 0 7 -57 7 -127z"/>
</g>
</svg>
