<?xml version="1.0" standalone="no"?>
<!DOCTYPE svg PUBLIC "-//W3C//DTD SVG 20010904//EN"
 "http://www.w3.org/TR/2001/REC-SVG-20010904/DTD/svg10.dtd">
<svg version="1.0" xmlns="http://www.w3.org/2000/svg"
 width="48.000000pt" height="48.000000pt" viewBox="0 0 48.000000 48.000000"
 preserveAspectRatio="xMidYMid meet">
<metadata>
Created by potrace 1.16, written by Peter Selinger 2001-2019
</metadata>
<g transform="translate(0.000000,48.000000) scale(0.100000,-0.100000)"
fill="#000000" stroke="none">
<path d="M239 433 c-37 -22 -59 -64 -59 -110 0 -35 -7 -46 -80 -118 -76 -76
-95 -105 -67 -105 7 0 49 37 95 83 80 80 82 84 82 130 0 40 5 54 29 78 24 24
38 29 76 29 38 0 52 -5 76 -29 24 -24 29 -38 29 -76 0 -38 -5 -52 -29 -76 -25
-24 -38 -29 -78 -29 -40 0 -54 -5 -73 -25 -13 -14 -32 -25 -42 -25 -11 0 -18
-7 -18 -20 0 -13 -7 -20 -20 -20 -13 0 -20 -7 -20 -20 0 -13 -7 -20 -20 -20
-13 0 -20 -7 -20 -20 0 -15 -7 -20 -27 -20 -26 0 -22 6 55 83 79 79 97 107 69
107 -16 0 -197 -181 -197 -198 0 -8 19 -12 60 -12 53 0 60 2 60 20 0 13 7 20
20 20 13 0 20 7 20 20 0 13 7 20 20 20 13 0 20 7 20 20 0 14 7 20 23 20 13 0
32 9 42 20 12 14 31 20 58 20 77 0 127 53 127 135 0 86 -50 135 -137 135 -26
0 -60 -8 -74 -17z"/>
</g>
</svg>
