<?xml version="1.0" encoding="UTF-8"?>
<!DOCTYPE svg PUBLIC "-//W3C//DTD SVG 1.1//EN" "http://www.w3.org/Graphics/SVG/1.1/DTD/svg11.dtd">
<svg xmlns="http://www.w3.org/2000/svg" version="1.1" width="96px" height="96px" style="shape-rendering:geometricPrecision; text-rendering:geometricPrecision; image-rendering:optimizeQuality; fill-rule:evenodd; clip-rule:evenodd" xmlns:xlink="http://www.w3.org/1999/xlink">
<g><path style="opacity:0.969" fill="#ffa000" d="M 49.5,89.5 C 49.5,76.8333 49.5,64.1667 49.5,51.5C 48.1667,51.5 46.8333,51.5 45.5,51.5C 45.5,64.1667 45.5,76.8333 45.5,89.5C 41.698,88.2214 38.5313,85.8881 36,82.5C 35.6667,72.1667 35.3333,61.8333 35,51.5C 30.0664,50.5993 25.3997,48.9326 21,46.5C 18.1143,40.863 16.9476,34.863 17.5,28.5C 16.8007,21.8478 18.134,15.6812 21.5,10C 29.6906,6.24545 38.3573,4.74545 47.5,5.5C 56.6427,4.74545 65.3094,6.24545 73.5,10C 76.866,15.6812 78.1993,21.8478 77.5,28.5C 78.0524,34.863 76.8857,40.863 74,46.5C 73.0975,47.7014 71.9308,48.5348 70.5,49C 66.9495,49.7836 63.4495,50.6169 60,51.5C 60.1507,55.3731 58.9841,58.7064 56.5,61.5C 60.5,65.5 60.5,69.5 56.5,73.5C 59.242,75.9331 60.0754,78.9331 59,82.5C 56.4687,85.8881 53.302,88.2214 49.5,89.5 Z M 46.5,15.5 C 50.7847,16.2083 55.118,16.7083 59.5,17C 62.1783,20.2928 61.5117,22.9595 57.5,25C 50.8333,25.6667 44.1667,25.6667 37.5,25C 34.1105,23.3952 33.1105,20.8952 34.5,17.5C 38.6347,16.8909 42.6347,16.2243 46.5,15.5 Z"/></g>
<g><path style="opacity:1" fill="#d58600" d="M 49.5,89.5 C 48.1667,89.5 46.8333,89.5 45.5,89.5C 45.5,76.8333 45.5,64.1667 45.5,51.5C 46.8333,51.5 48.1667,51.5 49.5,51.5C 49.5,64.1667 49.5,76.8333 49.5,89.5 Z"/></g>
</svg>
