<?xml version="1.0" encoding="UTF-8"?>
<!DOCTYPE svg PUBLIC "-//W3C//DTD SVG 1.1//EN" "http://www.w3.org/Graphics/SVG/1.1/DTD/svg11.dtd">
<svg xmlns="http://www.w3.org/2000/svg" version="1.1" width="96px" height="96px" style="shape-rendering:geometricPrecision; text-rendering:geometricPrecision; image-rendering:optimizeQuality; fill-rule:evenodd; clip-rule:evenodd" xmlns:xlink="http://www.w3.org/1999/xlink">
<g><path style="opacity:0.886" fill="#0b1010" d="M 45.5,5.5 C 67.6034,6.43248 82.1034,17.4325 89,38.5C 92.2283,57.4897 86.3949,72.9897 71.5,85C 59.1478,91.0028 46.1478,93.0028 32.5,91C 16.5208,86.5921 7.35409,76.0921 5,59.5C 3.30064,29.8361 16.8006,11.8361 45.5,5.5 Z"/></g>
<g><path style="opacity:1" fill="#cbd9d9" d="M 60.5,10.5 C 61.1174,10.6107 61.6174,10.944 62,11.5C 63.0183,20.1243 62.5183,28.6243 60.5,37C 63.1786,40.4045 64.0119,44.2378 63,48.5C 58.0881,48.8557 55.4214,51.5224 55,56.5C 47.571,67.253 37.7377,75.0863 25.5,80C 22.2945,80.8902 19.2945,80.5569 16.5,79C 34.7436,76.3995 47.4102,66.7328 54.5,50C 51.7498,47.3475 50.5831,44.1808 51,40.5C 52.805,37.9607 55.305,36.9607 58.5,37.5C 60.2142,28.6102 60.8809,19.6102 60.5,10.5 Z"/></g>
<g><path style="opacity:1" fill="#72c8cb" d="M 31.5,12.5 C 32.6408,15.6399 32.8075,18.9733 32,22.5C 29.3333,25.1667 26.6667,27.8333 24,30.5C 24.0089,26.4463 24.6756,22.4463 26,18.5C 27.3597,15.9774 29.193,13.9774 31.5,12.5 Z"/></g>
<g><path style="opacity:1" fill="#b7b7b7" d="M 42.5,13.5 C 49.1071,11.749 51.6071,14.0823 50,20.5C 42.0157,24.3524 39.5157,22.019 42.5,13.5 Z"/></g>
<g><path style="opacity:1" fill="#70c6c9" d="M 41.5,8.5 C 46.1785,8.33418 50.8452,8.50085 55.5,9C 56.3081,9.30762 56.9747,9.80762 57.5,10.5C 58.8721,18.8849 58.5388,27.2182 56.5,35.5C 48.4238,36.7445 46.4238,41.0779 50.5,48.5C 48.6083,52.306 45.775,53.9727 42,53.5C 37.4513,43.9745 35.118,33.9745 35,23.5C 37.1838,21.1291 39.3505,21.2958 41.5,24C 43.8333,24.6667 46.1667,24.6667 48.5,24C 51.5846,20.8967 54.5846,17.7301 57.5,14.5C 56.2243,13.3554 54.891,13.3554 53.5,14.5C 46.287,8.30637 41.1203,9.6397 38,18.5C 37,19.1667 36,19.8333 35,20.5C 34.2585,17.438 34.4252,14.438 35.5,11.5C 37.5939,10.4824 39.5939,9.4824 41.5,8.5 Z"/></g>
<g><path style="opacity:1" fill="#6ec2c5" d="M 65.5,14.5 C 66.9468,15.1342 67.6134,16.3009 67.5,18C 66.8405,20.4621 66.5072,22.9621 66.5,25.5C 65.5184,22.0381 65.185,18.3714 65.5,14.5 Z"/></g>
<g><path style="opacity:1" fill="#71c8cb" d="M 69.5,15.5 C 74.0103,17.4037 75.0103,20.2371 72.5,24C 73.2817,27.9483 75.615,30.4483 79.5,31.5C 79.8333,32.5 80.1667,33.5 80.5,34.5C 79.3971,37.4379 78.0637,40.2713 76.5,43C 77.6387,45.6294 78.972,48.1294 80.5,50.5C 78.0755,60.686 73.0755,69.3526 65.5,76.5C 59.8157,73.8353 55.149,70.0019 51.5,65C 53.3189,62.5107 55.1522,60.0107 57,57.5C 58.0086,55.9751 58.5086,54.3084 58.5,52.5C 64.1341,52.0375 66.6341,49.0375 66,43.5C 65.4837,40.9664 64.317,38.7998 62.5,37C 67.3624,30.7381 69.6958,23.5714 69.5,15.5 Z"/></g>
<g><path style="opacity:1" fill="#116d6f" d="M 22.5,18.5 C 23.0967,18.7352 23.4301,19.2352 23.5,20C 20.0544,27.3843 19.7211,34.8843 22.5,42.5C 27.1751,42.983 29.8418,45.483 30.5,50C 29.2042,52.7336 28.7042,55.567 29,58.5C 31.112,62.2784 33.612,65.7784 36.5,69C 34.1827,70.7127 32.1827,70.2127 30.5,67.5C 28.8693,69.0588 28.036,71.0588 28,73.5C 26.9887,74.3366 25.8221,74.67 24.5,74.5C 24.0522,69.9592 24.7189,65.6259 26.5,61.5C 25.846,59.8849 25.346,58.2182 25,56.5C 19.4183,56.9079 16.2517,54.4079 15.5,49C 16.1667,46.3333 16.8333,43.6667 17.5,41C 14.9598,32.4283 16.6265,24.9283 22.5,18.5 Z"/></g>
<g><path style="opacity:0.757" fill="#254142" d="M 65.5,14.5 C 65.185,18.3714 65.5184,22.0381 66.5,25.5C 66.0133,26.4734 65.5133,27.4734 65,28.5C 64.1849,23.6478 64.3516,18.9811 65.5,14.5 Z"/></g>
<g><path style="opacity:1" fill="#b3b3b3" d="M 75.5,21.5 C 78.0016,23.1696 80.0016,25.3363 81.5,28C 76.6714,28.6678 74.6714,26.5011 75.5,21.5 Z"/></g>
<g><path style="opacity:1" fill="#6fc4c7" d="M 31.5,25.5 C 33.2361,35.7554 36.2361,45.7554 40.5,55.5C 38.8105,57.3495 36.6438,58.3495 34,58.5C 30.2982,58.0937 29.6316,56.427 32,53.5C 33.6607,46.4861 30.994,42.1527 24,40.5C 23.3333,38.5 23.3333,36.5 24,34.5C 26.3347,31.3347 28.8347,28.3347 31.5,25.5 Z"/></g>
<g><path style="opacity:1" fill="#70c5c8" d="M 13.5,29.5 C 14.293,33.3388 14.9597,37.3388 15.5,41.5C 10.8789,50.6166 13.3789,56.6166 23,59.5C 23.0514,63.1566 22.718,66.8233 22,70.5C 9.94876,65.7274 5.28209,57.0607 8,44.5C 9.84055,39.4888 11.6739,34.4888 13.5,29.5 Z"/></g>
<g><path style="opacity:1" fill="#66b3b6" d="M 83.5,32.5 C 85.2274,34.5157 86.0608,36.849 86,39.5C 83.8634,37.6789 83.0301,35.3456 83.5,32.5 Z"/></g>
<g><path style="opacity:1" fill="#b4b4b4" d="M 80.5,39.5 C 82.6348,39.147 83.9681,39.9803 84.5,42C 83.3988,45.5555 81.3988,46.2222 78.5,44C 79.2666,42.5295 79.9332,41.0295 80.5,39.5 Z"/></g>
<g><path style="opacity:1" fill="#6ec2c5" d="M 86.5,41.5 C 88.769,54.2217 85.769,65.7217 77.5,76C 74.5147,76.8676 71.5147,77.2009 68.5,77C 77.8461,66.7497 83.8461,54.9164 86.5,41.5 Z"/></g>
<g><path style="opacity:1" fill="#6abbbe" d="M 50.5,51.5 C 51.0431,51.56 51.3764,51.8933 51.5,52.5C 50.6667,54.1667 49.8333,55.8333 49,57.5C 46.5836,60.276 45.2503,59.9427 45,56.5C 47.3284,55.3365 49.1618,53.6698 50.5,51.5 Z"/></g>
<g><path style="opacity:1" fill="#6ec3c6" d="M 40.5,58.5 C 42.3841,58.7118 43.7174,59.7118 44.5,61.5C 42.8333,63.8333 40.8333,65.8333 38.5,67.5C 36.3674,65.9095 34.7007,63.9095 33.5,61.5C 35.9998,60.6411 38.3331,59.6411 40.5,58.5 Z"/></g>
<g><path style="opacity:1" fill="#6ec1c4" d="M 9.5,65.5 C 13.1165,68.3147 17.1165,70.648 21.5,72.5C 22.8333,73.5 22.8333,74.5 21.5,75.5C 19.2324,76.5443 16.8991,76.711 14.5,76C 11.8913,72.9492 10.2246,69.4492 9.5,65.5 Z"/></g>
<g><path style="opacity:1" fill="#68b8bb" d="M 48.5,67.5 C 52.6565,70.8105 56.9898,73.9772 61.5,77C 60.1667,77.6667 58.8333,77.6667 57.5,77C 53.4021,72.3022 48.7355,71.4689 43.5,74.5C 43.3505,73.448 43.5172,72.448 44,71.5C 45.6667,70.2668 47.1667,68.9335 48.5,67.5 Z"/></g>
<g><path style="opacity:1" fill="#106b6c" d="M 39.5,74.5 C 41.4358,75.259 43.2691,76.259 45,77.5C 49.2232,74.6086 53.0565,75.1086 56.5,79C 62.1667,79.3333 67.8333,79.6667 73.5,80C 68.1383,81.828 62.6383,81.9947 57,80.5C 55.4107,82.4596 53.5774,84.1263 51.5,85.5C 49.7257,85.1132 48.059,84.4465 46.5,83.5C 45.1356,80.9826 43.1356,79.1493 40.5,78C 39.6634,76.9887 39.33,75.8221 39.5,74.5 Z"/></g>
<g><path style="opacity:1" fill="#6ec1c4" d="M 54.5,87.5 C 48.7326,89.2204 42.7326,89.7204 36.5,89C 34.0762,86.8216 32.4095,84.155 31.5,81C 32.2856,79.0124 33.7856,77.8457 36,77.5C 39.5534,79.1919 42.3867,81.6919 44.5,85C 47.5358,87.0063 50.8691,87.8396 54.5,87.5 Z"/></g>
<g><path style="opacity:0.999" fill="#106a6c" d="M 28.5,80.5 C 29.6624,82.9862 30.9958,85.4862 32.5,88C 26.7686,87.7019 25.4353,85.2019 28.5,80.5 Z"/></g>
<g><path style="opacity:1" fill="#5ca2a4" d="M 21.5,82.5 C 23.337,82.6395 23.6704,83.3061 22.5,84.5C 21.7025,84.0431 21.3691,83.3764 21.5,82.5 Z"/></g>
<g><path style="opacity:1" fill="#6dc0c3" d="M 54.5,87.5 C 57.1031,83.151 60.7698,82.3176 65.5,85C 61.9855,86.5617 58.3189,87.395 54.5,87.5 Z"/></g>
</svg>
